<svg width="42" height="44" viewBox="0 0 42 44" fill="none" xmlns="http://www.w3.org/2000/svg">
<path d="M29.3533 34.916C29.9533 35.204 30.6993 35.95 31.0613 36.552C31.1813 37.392 31.7813 34.146 34.7173 32.222M39.9993 34.006C39.9993 36.1277 39.1564 38.1626 37.6562 39.6629C36.1559 41.1631 34.121 42.006 31.9993 42.006C29.8776 42.006 27.8427 41.1631 26.3425 39.6629C24.8422 38.1626 23.9993 36.1277 23.9993 34.006C23.9993 31.8843 24.8422 29.8494 26.3425 28.3491C27.8427 26.8489 29.8776 26.006 31.9993 26.006C34.121 26.006 36.1559 26.8489 37.6562 28.3491C39.1564 29.8494 39.9993 31.8843 39.9993 34.006Z" stroke="black" stroke-width="3" stroke-linecap="round" stroke-linejoin="round"/>
<path d="M19.0153 26.006C21.2244 26.006 23.0153 24.2151 23.0153 22.006C23.0153 19.7969 21.2244 18.006 19.0153 18.006C16.8062 18.006 15.0153 19.7969 15.0153 22.006C15.0153 24.2151 16.8062 26.006 19.0153 26.006Z" stroke="black" stroke-width="3" stroke-linecap="round" stroke-linejoin="round"/>
<path d="M12.0153 34.006C13.9153 32.206 15.5153 31.206 19.0653 31.006M36.0153 21.006C36.0153 19.406 36.0653 14.506 35.8153 12.506C35.6653 10.856 35.2153 8.606 33.1653 7.306C31.9153 6.656 30.7153 6.056 24.9653 6.006M12.9153 6.006C8.61531 6.006 5.26531 6.356 3.61531 8.406C2.21531 10.32 2.29731 12.506 2.16531 13.206C1.86531 16.956 2.06531 30.056 2.06531 32.256C2.06531 34.556 1.91531 39.23 5.06531 40.806C7.76531 42.156 10.5653 41.956 20.0653 42.006M18.7153 2.006C17.5153 2.006 16.5153 2.006 15.5153 3.056C14.6653 3.856 14.7953 4.562 14.4653 5.806C13.9973 7.556 13.7653 8.48 14.4153 9.206C15.0113 9.986 16.0133 9.99 16.8993 9.992H16.9153C17.7653 10.052 20.6213 10.024 21.4653 9.992C22.3693 9.956 23.0993 9.906 23.7153 9.106C24.2653 8.392 23.9393 7.202 23.6153 5.956C23.2953 4.728 23.4153 4.106 22.5653 3.056C21.3653 1.856 19.9153 2.006 18.7153 2.006Z" stroke="black" stroke-width="3" stroke-linecap="round" stroke-linejoin="round"/>
</svg>
