<svg width="42" height="39" viewBox="0 0 42 39" fill="none" xmlns="http://www.w3.org/2000/svg">
<path d="M8.25 1.42245e-07C7.8421 -0.000144877 7.44183 0.110598 7.09201 0.320384C6.74219 0.530169 6.45599 0.831105 6.264 1.191L0.264 12.441C0.0589803 12.8254 -0.0300282 13.2611 0.00778236 13.6951C0.0455929 14.1291 0.208596 14.5428 0.477 14.886L15.279 33.834C15.0936 33.0698 15 32.2863 15 31.5C14.9996 30.0677 15.4093 28.6653 16.1807 27.4585C16.9521 26.2517 18.0529 25.291 19.353 24.69L16.794 16.5H19.623C19.9069 14.8254 20.6589 13.2653 21.792 12H16.194L18.069 4.5H23.931L25.212 9.621C26.6414 9.06007 28.1905 8.87418 29.712 9.081L28.572 4.5H32.4L36.399 12H35.208C36.2245 13.1317 36.9366 14.5032 37.2771 15.9858C37.6177 17.4683 37.5757 19.0132 37.155 20.475L41.523 14.886C41.7909 14.5425 41.9534 14.1287 41.9907 13.6946C42.028 13.2606 41.9384 12.8251 41.733 12.441L35.733 1.191C35.5413 0.831554 35.2555 0.530912 34.9063 0.321155C34.557 0.111398 34.1574 0.000398583 33.75 1.42245e-07H8.25ZM5.601 12L9.6 4.5H13.431L11.556 12H5.601ZM7.449 16.5H12.081L15.168 26.379L7.449 16.5ZM34.5 18C34.5 19.5913 33.8679 21.1174 32.7426 22.2426C31.6174 23.3679 30.0913 24 28.5 24C26.9087 24 25.3826 23.3679 24.2574 22.2426C23.1321 21.1174 22.5 19.5913 22.5 18C22.5 16.4087 23.1321 14.8826 24.2574 13.7574C25.3826 12.6321 26.9087 12 28.5 12C30.0913 12 31.6174 12.6321 32.7426 13.7574C33.8679 14.8826 34.5 16.4087 34.5 18ZM39 31.5C39 35.235 36 39 28.5 39C21 39 18 35.25 18 31.5C18 30.3065 18.4741 29.1619 19.318 28.318C20.1619 27.4741 21.3065 27 22.5 27H34.5C35.6935 27 36.8381 27.4741 37.682 28.318C38.5259 29.1619 39 30.3065 39 31.5Z" fill="black"/>
</svg>
