<svg width="40" height="44" viewBox="0 0 40 44" fill="none" xmlns="http://www.w3.org/2000/svg">
<path fill-rule="evenodd" clip-rule="evenodd" d="M28.5 7.644C28.5 8.464 29.18 9.144 30 9.144C30.82 9.144 31.5 8.464 31.5 7.644V6.576C32.862 6.852 33.86 7.304 34.6 8.044C35.664 9.108 36.132 10.7 36.34 13.144H3.66C3.868 10.7 4.336 9.108 5.4 8.044C6.14 7.304 7.138 6.852 8.5 6.576V7.644C8.5 8.464 9.18 9.144 10 9.144C10.82 9.144 11.5 8.464 11.5 7.644V6.24C13.252 6.146 15.388 6.146 18 6.146H22C24.612 6.146 26.748 6.146 28.5 6.24V7.644ZM3.526 16.144H36.474C36.5 17.462 36.5 18.952 36.5 20.644V25.644C36.5 32.764 36.5 36.344 34.6 38.244C32.7 40.144 29.12 40.144 22 40.144H18C10.88 40.144 7.3 40.144 5.4 38.244C3.5 36.344 3.5 32.764 3.5 25.644V20.644C3.5 18.952 3.5 17.462 3.526 16.144ZM31.5 3.524V1.644C31.5 0.824 30.82 0.144 30 0.144C29.18 0.144 28.5 0.824 28.5 1.644V3.236C26.68 3.144 24.542 3.144 22 3.144H18C15.458 3.144 13.32 3.144 11.5 3.236V1.644C11.5 0.824 10.82 0.144 10 0.144C9.18 0.144 8.5 0.824 8.5 1.644V3.524C6.264 3.88 4.63 4.574 3.28 5.924C0.5 8.704 0.5 12.684 0.5 20.644V25.644C0.5 33.604 0.5 37.584 3.28 40.364C6.06 43.144 10.04 43.144 18 43.144H22C29.96 43.144 33.94 43.144 36.72 40.364C39.5 37.584 39.5 33.604 39.5 25.644V20.644C39.5 12.684 39.5 8.704 36.72 5.924C35.37 4.574 33.736 3.88 31.5 3.524ZM17.86 34.144H18C18.54 34.144 19.06 33.844 19.32 33.364L19.34 33.33C19.66 32.77 23.66 25.78 28.5 24.064C29.28 23.784 29.7 22.924 29.42 22.144C29.2868 21.7678 29.01 21.4597 28.6501 21.2873C28.2902 21.1149 27.8766 21.0921 27.5 21.224C23.3 22.724 19.84 27.044 18.04 29.724C16.52 27.924 14.58 27.264 14.46 27.224C14.2749 27.1614 14.0792 27.1361 13.8842 27.1496C13.6893 27.163 13.4989 27.2149 13.3242 27.3023C13.1494 27.3897 12.9936 27.5108 12.8659 27.6587C12.7382 27.8066 12.641 27.9784 12.58 28.164C12.3 28.944 12.72 29.784 13.5 30.064L13.538 30.082C13.844 30.21 15.872 31.064 16.558 33.124C16.758 33.684 17.258 34.084 17.858 34.144" fill="black"/>
</svg>
